<?xml version="1.0" encoding="UTF-8"?>
<svg xmlns="http://www.w3.org/2000/svg" viewBox="0 0 263 263">
    <path fill-rule="evenodd" clip-rule="evenodd" d="M65.0168 108.147C67.959 108.147 70.3404 110.544 70.3404 113.509V127.798C70.3404 160.362 96.5362 186.757 128.839 186.757C161.15 186.757 187.338 160.362 187.338 127.798V113.509C187.338 110.544 189.72 108.147 192.662 108.147C195.596 108.147 197.978 110.544 197.978 113.509V127.798C197.978 166.285 167.019 197.474 128.839 197.474C90.6595 197.474 59.7008 166.285 59.7008 127.798V113.509C59.7008 110.544 62.0822 108.147 65.0168 108.147Z" fill="white" />
    <path fill-rule="evenodd" clip-rule="evenodd" d="M80.9647 92.0763C80.9647 65.4275 102.398 43.8335 128.824 43.8335H128.832C155.258 43.8335 176.691 65.4275 176.691 92.0763V127.798C176.691 154.439 155.258 176.04 128.824 176.04C102.398 176.04 80.9647 154.439 80.9647 127.798V92.0763ZM105.789 77.5057C103.172 77.5057 101.051 79.6266 101.051 82.2429C101.051 84.8592 103.172 86.9802 105.789 86.9802L128.835 86.9801C131.451 86.9801 133.572 84.8592 133.572 82.2429C133.572 79.6266 131.451 77.5057 128.835 77.5057L105.789 77.5057ZM101.051 105.289C101.051 102.672 103.172 100.551 105.789 100.551H144.199C146.815 100.551 148.936 102.672 148.936 105.289C148.936 107.905 146.815 110.026 144.199 110.026H105.789C103.172 110.026 101.051 107.905 101.051 105.289ZM105.789 123.597C103.172 123.597 101.051 125.718 101.051 128.334C101.051 130.95 103.172 133.071 105.789 133.071H151.881C154.497 133.071 156.618 130.95 156.618 128.334C156.618 125.718 154.497 123.597 151.881 123.597H105.789Z" fill="white" />
    <path fill-rule="evenodd" clip-rule="evenodd" d="M128.839 232.935C126.223 232.935 124.102 230.814 124.102 228.197L124.102 205.151C124.102 202.535 126.223 200.414 128.839 200.414C131.455 200.414 133.576 202.535 133.576 205.151L133.576 228.197C133.576 230.814 131.455 232.935 128.839 232.935Z" fill="white" />
</svg>
